<svg xmlns="http://www.w3.org/2000/svg" viewBox="0 0 458 458"><defs><style>.cls-1{fill:#10aa50;}.cls-2{fill:#b8c4c2;}.cls-3{fill:#12924f;}.cls-4{fill:none;stroke:#13aa52;stroke-miterlimit:10;stroke-width:8px;}</style></defs><title>monsta-icon</title><g id="Layer_1" data-name="Layer 1"><path class="cls-1" d="M328.42,213c-19.09-84.2-58.87-106.62-69-122.46a181.22,181.22,0,0,1-11.1-21.72c-.53,7.48-1.52,12.19-7.88,17.86-12.76,11.39-67,55.57-71.55,151.24-4.25,89.2,65.58,144.21,74.81,149.89,7.09,3.49,15.73.08,19.94-3.13C297.28,361.61,343.28,300,328.45,213" transform="translate(-21 -21)"/><path class="cls-2" d="M251.19,340.34c-1.75,22.08-3,34.91-7.48,47.53,0,0,2.93,21,5,43.28H256a406.14,406.14,0,0,1,7.94-46.61C254.5,379.9,251.56,359.72,251.19,340.34Z" transform="translate(-21 -21)"/><path class="cls-3" d="M263.91,384.55h0c-9.52-4.4-12.28-25-12.7-44.21a905,905,0,0,0,2-95.18c-.49-16.66.24-154.27-4.1-174.42A167.13,167.13,0,0,0,259.4,90.55c10.15,15.86,49.94,38.28,69,122.48C343.28,299.87,297.53,361.3,263.91,384.55Z" transform="translate(-21 -21)"/></g><g id="Layer_2" data-name="Layer 2"><rect class="cls-4" x="4" y="4" width="450" height="450" rx="83.08"/></g></svg>